<svg xmlns="http://www.w3.org/2000/svg" viewBox="0 0 512 512" role="img" aria-label="Sparkle">
  <defs>
    <linearGradient id="holo" x1="0" y1="0" x2="1" y2="1">
      <stop offset="0%" stop-color="#c4b5fd"/>
      <stop offset="35%" stop-color="#a5f3fc"/>
      <stop offset="65%" stop-color="#67e8f9"/>
      <stop offset="100%" stop-color="#818cf8"/>
    </linearGradient>
  </defs>
  <rect width="512" height="512" rx="112" fill="#0b0b1a"/>
  
  <!-- Background stars -->
  <circle cx="80" cy="100" r="3" fill="#818cf8" opacity="0.6"/>
  <circle cx="430" cy="90" r="2.5" fill="#a5f3fc" opacity="0.5"/>
  <circle cx="450" cy="380" r="2" fill="#c4b5fd" opacity="0.4"/>
  <circle cx="70" cy="420" r="2.5" fill="#67e8f9" opacity="0.5"/>
  <circle cx="120" cy="320" r="1.5" fill="#818cf8" opacity="0.3"/>
  <circle cx="380" cy="440" r="2" fill="#a5f3fc" opacity="0.4"/>
  <circle cx="460" cy="150" r="1.5" fill="#c4b5fd" opacity="0.3"/>
  <circle cx="60" cy="200" r="2" fill="#67e8f9" opacity="0.4"/>
  <circle cx="340" cy="100" r="1.5" fill="#818cf8" opacity="0.3"/>
  <circle cx="420" cy="460" r="2" fill="#a5f3fc" opacity="0.4"/>
  
  <path fill="url(#holo)" d="M256 64
    C272 168 344 240 448 256
    C344 272 272 344 256 448
    C240 344 168 272 64 256
    C168 240 240 168 256 64 Z"/>
</svg>
